<?xml version="1.0" encoding="utf-8" standalone="no"?>
<!DOCTYPE svg PUBLIC "-//W3C//DTD SVG 1.1//EN"
  "http://www.w3.org/Graphics/SVG/1.1/DTD/svg11.dtd">
<svg height="340.885116pt" version="1.1" viewBox="0 0 341.668172 340.885116" width="341.668172pt" xmlns="http://www.w3.org/2000/svg" xmlns:xlink="http://www.w3.org/1999/xlink">
 <metadata>
  <rdf:RDF xmlns:cc="http://creativecommons.org/ns#" xmlns:dc="http://purl.org/dc/elements/1.1/" xmlns:rdf="http://www.w3.org/1999/02/22-rdf-syntax-ns#">
   <cc:Work>
    <dc:type rdf:resource="http://purl.org/dc/dcmitype/StillImage"/>
    <dc:date>2021-04-27T16:30:19.105108</dc:date>
    <dc:format>image/svg+xml</dc:format>
    <dc:creator>
     <cc:Agent>
      <dc:title>Matplotlib v3.4.1, https://matplotlib.org/</dc:title>
     </cc:Agent>
    </dc:creator>
   </cc:Work>
  </rdf:RDF>
 </metadata>
 <defs>
  <style type="text/css">*{stroke-linecap:butt;stroke-linejoin:round;}</style>
 </defs>
 <g id="figure_1">
  <g id="patch_1">
   <path d="M 0 340.885116 
L 341.668172 340.885116 
L 341.668172 0 
L 0 0 
z
" style="fill:#ffffff;"/>
  </g>
  <g id="axes_1">
   <g id="patch_2">
    <path d="M 63.093 310.345397 
L 324.792026 310.345397 
L 324.792026 10.77218 
L 63.093 10.77218 
z
" style="fill:#ffffff;"/>
   </g>
   <g id="patch_3">
    <path clip-path="url(#pf887509d5b)" d="M 74.98841 310.345397 
L 84.138726 310.345397 
L 84.138726 302.902584 
L 74.98841 302.902584 
z
" style="fill:#1f77b4;fill-opacity:0.75;stroke:#000000;stroke-linejoin:miter;stroke-width:0.988441;"/>
   </g>
   <g id="patch_4">
    <path clip-path="url(#pf887509d5b)" d="M 84.138726 310.345397 
L 93.289042 310.345397 
L 93.289042 305.383522 
L 84.138726 305.383522 
z
" style="fill:#1f77b4;fill-opacity:0.75;stroke:#000000;stroke-linejoin:miter;stroke-width:0.988441;"/>
   </g>
   <g id="patch_5">
    <path clip-path="url(#pf887509d5b)" d="M 93.289042 310.345397 
L 102.439357 310.345397 
L 102.439357 305.383522 
L 93.289042 305.383522 
z
" style="fill:#1f77b4;fill-opacity:0.75;stroke:#000000;stroke-linejoin:miter;stroke-width:0.988441;"/>
   </g>
   <g id="patch_6">
    <path clip-path="url(#pf887509d5b)" d="M 102.439357 310.345397 
L 111.589673 310.345397 
L 111.589673 104.427575 
L 102.439357 104.427575 
z
" style="fill:#1f77b4;fill-opacity:0.75;stroke:#000000;stroke-linejoin:miter;stroke-width:0.988441;"/>
   </g>
   <g id="patch_7">
    <path clip-path="url(#pf887509d5b)" d="M 111.589673 310.345397 
L 120.739988 310.345397 
L 120.739988 144.122577 
L 111.589673 144.122577 
z
" style="fill:#1f77b4;fill-opacity:0.75;stroke:#000000;stroke-linejoin:miter;stroke-width:0.988441;"/>
   </g>
   <g id="patch_8">
    <path clip-path="url(#pf887509d5b)" d="M 120.739988 310.345397 
L 129.890304 310.345397 
L 129.890304 25.037571 
L 120.739988 25.037571 
z
" style="fill:#1f77b4;fill-opacity:0.75;stroke:#000000;stroke-linejoin:miter;stroke-width:0.988441;"/>
   </g>
   <g id="patch_9">
    <path clip-path="url(#pf887509d5b)" d="M 129.890304 310.345397 
L 139.04062 310.345397 
L 139.04062 233.436331 
L 129.890304 233.436331 
z
" style="fill:#1f77b4;fill-opacity:0.75;stroke:#000000;stroke-linejoin:miter;stroke-width:0.988441;"/>
   </g>
   <g id="patch_10">
    <path clip-path="url(#pf887509d5b)" d="M 139.04062 310.345397 
L 148.190935 310.345397 
L 148.190935 238.398206 
L 139.04062 238.398206 
z
" style="fill:#1f77b4;fill-opacity:0.75;stroke:#000000;stroke-linejoin:miter;stroke-width:0.988441;"/>
   </g>
   <g id="patch_11">
    <path clip-path="url(#pf887509d5b)" d="M 148.190935 310.345397 
L 157.341251 310.345397 
L 157.341251 146.603514 
L 148.190935 146.603514 
z
" style="fill:#1f77b4;fill-opacity:0.75;stroke:#000000;stroke-linejoin:miter;stroke-width:0.988441;"/>
   </g>
   <g id="patch_12">
    <path clip-path="url(#pf887509d5b)" d="M 157.341251 310.345397 
L 166.491566 310.345397 
L 166.491566 193.741329 
L 157.341251 193.741329 
z
" style="fill:#1f77b4;fill-opacity:0.75;stroke:#000000;stroke-linejoin:miter;stroke-width:0.988441;"/>
   </g>
   <g id="patch_13">
    <path clip-path="url(#pf887509d5b)" d="M 166.491566 310.345397 
L 175.641882 310.345397 
L 175.641882 278.093208 
L 166.491566 278.093208 
z
" style="fill:#1f77b4;fill-opacity:0.75;stroke:#000000;stroke-linejoin:miter;stroke-width:0.988441;"/>
   </g>
   <g id="patch_14">
    <path clip-path="url(#pf887509d5b)" d="M 175.641882 310.345397 
L 184.792198 310.345397 
L 184.792198 295.459771 
L 175.641882 295.459771 
z
" style="fill:#1f77b4;fill-opacity:0.75;stroke:#000000;stroke-linejoin:miter;stroke-width:0.988441;"/>
   </g>
   <g id="patch_15">
    <path clip-path="url(#pf887509d5b)" d="M 184.792198 310.345397 
L 193.942513 310.345397 
L 193.942513 297.940709 
L 184.792198 297.940709 
z
" style="fill:#1f77b4;fill-opacity:0.75;stroke:#000000;stroke-linejoin:miter;stroke-width:0.988441;"/>
   </g>
   <g id="patch_16">
    <path clip-path="url(#pf887509d5b)" d="M 193.942513 310.345397 
L 203.092829 310.345397 
L 203.092829 300.421647 
L 193.942513 300.421647 
z
" style="fill:#1f77b4;fill-opacity:0.75;stroke:#000000;stroke-linejoin:miter;stroke-width:0.988441;"/>
   </g>
   <g id="patch_17">
    <path clip-path="url(#pf887509d5b)" d="M 203.092829 310.345397 
L 212.243144 310.345397 
L 212.243144 297.940709 
L 203.092829 297.940709 
z
" style="fill:#1f77b4;fill-opacity:0.75;stroke:#000000;stroke-linejoin:miter;stroke-width:0.988441;"/>
   </g>
   <g id="patch_18">
    <path clip-path="url(#pf887509d5b)" d="M 212.243144 310.345397 
L 221.39346 310.345397 
L 221.39346 290.497896 
L 212.243144 290.497896 
z
" style="fill:#1f77b4;fill-opacity:0.75;stroke:#000000;stroke-linejoin:miter;stroke-width:0.988441;"/>
   </g>
   <g id="patch_19">
    <path clip-path="url(#pf887509d5b)" d="M 221.39346 310.345397 
L 230.543776 310.345397 
L 230.543776 295.459771 
L 221.39346 295.459771 
z
" style="fill:#1f77b4;fill-opacity:0.75;stroke:#000000;stroke-linejoin:miter;stroke-width:0.988441;"/>
   </g>
   <g id="patch_20">
    <path clip-path="url(#pf887509d5b)" d="M 230.543776 310.345397 
L 239.694091 310.345397 
L 239.694091 302.902584 
L 230.543776 302.902584 
z
" style="fill:#1f77b4;fill-opacity:0.75;stroke:#000000;stroke-linejoin:miter;stroke-width:0.988441;"/>
   </g>
   <g id="patch_21">
    <path clip-path="url(#pf887509d5b)" d="M 239.694091 310.345397 
L 248.844407 310.345397 
L 248.844407 302.902584 
L 239.694091 302.902584 
z
" style="fill:#1f77b4;fill-opacity:0.75;stroke:#000000;stroke-linejoin:miter;stroke-width:0.988441;"/>
   </g>
   <g id="patch_22">
    <path clip-path="url(#pf887509d5b)" d="M 248.844407 310.345397 
L 257.994722 310.345397 
L 257.994722 300.421647 
L 248.844407 300.421647 
z
" style="fill:#1f77b4;fill-opacity:0.75;stroke:#000000;stroke-linejoin:miter;stroke-width:0.988441;"/>
   </g>
   <g id="patch_23">
    <path clip-path="url(#pf887509d5b)" d="M 257.994722 310.345397 
L 267.145038 310.345397 
L 267.145038 307.864459 
L 257.994722 307.864459 
z
" style="fill:#1f77b4;fill-opacity:0.75;stroke:#000000;stroke-linejoin:miter;stroke-width:0.988441;"/>
   </g>
   <g id="patch_24">
    <path clip-path="url(#pf887509d5b)" d="M 267.145038 310.345397 
L 276.295354 310.345397 
L 276.295354 310.345397 
L 267.145038 310.345397 
z
" style="fill:#1f77b4;fill-opacity:0.75;stroke:#000000;stroke-linejoin:miter;stroke-width:0.988441;"/>
   </g>
   <g id="patch_25">
    <path clip-path="url(#pf887509d5b)" d="M 276.295354 310.345397 
L 285.445669 310.345397 
L 285.445669 305.383522 
L 276.295354 305.383522 
z
" style="fill:#1f77b4;fill-opacity:0.75;stroke:#000000;stroke-linejoin:miter;stroke-width:0.988441;"/>
   </g>
   <g id="patch_26">
    <path clip-path="url(#pf887509d5b)" d="M 285.445669 310.345397 
L 294.595985 310.345397 
L 294.595985 297.940709 
L 285.445669 297.940709 
z
" style="fill:#1f77b4;fill-opacity:0.75;stroke:#000000;stroke-linejoin:miter;stroke-width:0.988441;"/>
   </g>
   <g id="patch_27">
    <path clip-path="url(#pf887509d5b)" d="M 294.595985 310.345397 
L 303.7463 310.345397 
L 303.7463 307.864459 
L 294.595985 307.864459 
z
" style="fill:#1f77b4;fill-opacity:0.75;stroke:#000000;stroke-linejoin:miter;stroke-width:0.988441;"/>
   </g>
   <g id="patch_28">
    <path clip-path="url(#pf887509d5b)" d="M 303.7463 310.345397 
L 312.896616 310.345397 
L 312.896616 305.383522 
L 303.7463 305.383522 
z
" style="fill:#1f77b4;fill-opacity:0.75;stroke:#000000;stroke-linejoin:miter;stroke-width:0.988441;"/>
   </g>
   <g id="matplotlib.axis_1">
    <g id="xtick_1">
     <g id="line2d_1">
      <defs>
       <path d="M 0 0 
L 0 6 
" id="m12aaf07958" style="stroke:#000000;stroke-width:1.25;"/>
      </defs>
      <g>
       <use style="stroke:#000000;stroke-width:1.25;" x="93.17847" xlink:href="#m12aaf07958" y="310.345397"/>
      </g>
     </g>
     <g id="text_1">
      <!-- 100 -->
      <g transform="translate(79.530907 330.711163)scale(0.143 -0.143)">
       <defs>
        <path d="M 794 531 
L 1825 531 
L 1825 4091 
L 703 3866 
L 703 4441 
L 1819 4666 
L 2450 4666 
L 2450 531 
L 3481 531 
L 3481 0 
L 794 0 
L 794 531 
z
" id="DejaVuSans-31" transform="scale(0.015625)"/>
        <path d="M 2034 4250 
Q 1547 4250 1301 3770 
Q 1056 3291 1056 2328 
Q 1056 1369 1301 889 
Q 1547 409 2034 409 
Q 2525 409 2770 889 
Q 3016 1369 3016 2328 
Q 3016 3291 2770 3770 
Q 2525 4250 2034 4250 
z
M 2034 4750 
Q 2819 4750 3233 4129 
Q 3647 3509 3647 2328 
Q 3647 1150 3233 529 
Q 2819 -91 2034 -91 
Q 1250 -91 836 529 
Q 422 1150 422 2328 
Q 422 3509 836 4129 
Q 1250 4750 2034 4750 
z
" id="DejaVuSans-30" transform="scale(0.015625)"/>
       </defs>
       <use xlink:href="#DejaVuSans-31"/>
       <use x="63.623047" xlink:href="#DejaVuSans-30"/>
       <use x="127.246094" xlink:href="#DejaVuSans-30"/>
      </g>
     </g>
    </g>
    <g id="xtick_2">
     <g id="line2d_2">
      <g>
       <use style="stroke:#000000;stroke-width:1.25;" x="150.089005" xlink:href="#m12aaf07958" y="310.345397"/>
      </g>
     </g>
     <g id="text_2">
      <!-- 200 -->
      <g transform="translate(136.441442 330.711163)scale(0.143 -0.143)">
       <defs>
        <path d="M 1228 531 
L 3431 531 
L 3431 0 
L 469 0 
L 469 531 
Q 828 903 1448 1529 
Q 2069 2156 2228 2338 
Q 2531 2678 2651 2914 
Q 2772 3150 2772 3378 
Q 2772 3750 2511 3984 
Q 2250 4219 1831 4219 
Q 1534 4219 1204 4116 
Q 875 4013 500 3803 
L 500 4441 
Q 881 4594 1212 4672 
Q 1544 4750 1819 4750 
Q 2544 4750 2975 4387 
Q 3406 4025 3406 3419 
Q 3406 3131 3298 2873 
Q 3191 2616 2906 2266 
Q 2828 2175 2409 1742 
Q 1991 1309 1228 531 
z
" id="DejaVuSans-32" transform="scale(0.015625)"/>
       </defs>
       <use xlink:href="#DejaVuSans-32"/>
       <use x="63.623047" xlink:href="#DejaVuSans-30"/>
       <use x="127.246094" xlink:href="#DejaVuSans-30"/>
      </g>
     </g>
    </g>
    <g id="xtick_3">
     <g id="line2d_3">
      <g>
       <use style="stroke:#000000;stroke-width:1.25;" x="206.99954" xlink:href="#m12aaf07958" y="310.345397"/>
      </g>
     </g>
     <g id="text_3">
      <!-- 300 -->
      <g transform="translate(193.351977 330.711163)scale(0.143 -0.143)">
       <defs>
        <path d="M 2597 2516 
Q 3050 2419 3304 2112 
Q 3559 1806 3559 1356 
Q 3559 666 3084 287 
Q 2609 -91 1734 -91 
Q 1441 -91 1130 -33 
Q 819 25 488 141 
L 488 750 
Q 750 597 1062 519 
Q 1375 441 1716 441 
Q 2309 441 2620 675 
Q 2931 909 2931 1356 
Q 2931 1769 2642 2001 
Q 2353 2234 1838 2234 
L 1294 2234 
L 1294 2753 
L 1863 2753 
Q 2328 2753 2575 2939 
Q 2822 3125 2822 3475 
Q 2822 3834 2567 4026 
Q 2313 4219 1838 4219 
Q 1578 4219 1281 4162 
Q 984 4106 628 3988 
L 628 4550 
Q 988 4650 1302 4700 
Q 1616 4750 1894 4750 
Q 2613 4750 3031 4423 
Q 3450 4097 3450 3541 
Q 3450 3153 3228 2886 
Q 3006 2619 2597 2516 
z
" id="DejaVuSans-33" transform="scale(0.015625)"/>
       </defs>
       <use xlink:href="#DejaVuSans-33"/>
       <use x="63.623047" xlink:href="#DejaVuSans-30"/>
       <use x="127.246094" xlink:href="#DejaVuSans-30"/>
      </g>
     </g>
    </g>
    <g id="xtick_4">
     <g id="line2d_4">
      <g>
       <use style="stroke:#000000;stroke-width:1.25;" x="263.910075" xlink:href="#m12aaf07958" y="310.345397"/>
      </g>
     </g>
     <g id="text_4">
      <!-- 400 -->
      <g transform="translate(250.262512 330.711163)scale(0.143 -0.143)">
       <defs>
        <path d="M 2419 4116 
L 825 1625 
L 2419 1625 
L 2419 4116 
z
M 2253 4666 
L 3047 4666 
L 3047 1625 
L 3713 1625 
L 3713 1100 
L 3047 1100 
L 3047 0 
L 2419 0 
L 2419 1100 
L 313 1100 
L 313 1709 
L 2253 4666 
z
" id="DejaVuSans-34" transform="scale(0.015625)"/>
       </defs>
       <use xlink:href="#DejaVuSans-34"/>
       <use x="63.623047" xlink:href="#DejaVuSans-30"/>
       <use x="127.246094" xlink:href="#DejaVuSans-30"/>
      </g>
     </g>
    </g>
    <g id="xtick_5">
     <g id="line2d_5">
      <g>
       <use style="stroke:#000000;stroke-width:1.25;" x="320.820609" xlink:href="#m12aaf07958" y="310.345397"/>
      </g>
     </g>
     <g id="text_5">
      <!-- 500 -->
      <g transform="translate(307.173047 330.711163)scale(0.143 -0.143)">
       <defs>
        <path d="M 691 4666 
L 3169 4666 
L 3169 4134 
L 1269 4134 
L 1269 2991 
Q 1406 3038 1543 3061 
Q 1681 3084 1819 3084 
Q 2600 3084 3056 2656 
Q 3513 2228 3513 1497 
Q 3513 744 3044 326 
Q 2575 -91 1722 -91 
Q 1428 -91 1123 -41 
Q 819 9 494 109 
L 494 744 
Q 775 591 1075 516 
Q 1375 441 1709 441 
Q 2250 441 2565 725 
Q 2881 1009 2881 1497 
Q 2881 1984 2565 2268 
Q 2250 2553 1709 2553 
Q 1456 2553 1204 2497 
Q 953 2441 691 2322 
L 691 4666 
z
" id="DejaVuSans-35" transform="scale(0.015625)"/>
       </defs>
       <use xlink:href="#DejaVuSans-35"/>
       <use x="63.623047" xlink:href="#DejaVuSans-30"/>
       <use x="127.246094" xlink:href="#DejaVuSans-30"/>
      </g>
     </g>
    </g>
   </g>
   <g id="matplotlib.axis_2">
    <g id="ytick_1">
     <g id="line2d_6">
      <defs>
       <path d="M 0 0 
L -6 0 
" id="me7350a10c8" style="stroke:#000000;stroke-width:1.25;"/>
      </defs>
      <g>
       <use style="stroke:#000000;stroke-width:1.25;" x="63.093" xlink:href="#me7350a10c8" y="310.345397"/>
      </g>
     </g>
     <g id="text_6">
      <!-- 0 -->
      <g transform="translate(44.494625 315.77828)scale(0.143 -0.143)">
       <use xlink:href="#DejaVuSans-30"/>
      </g>
     </g>
    </g>
    <g id="ytick_2">
     <g id="line2d_7">
      <g>
       <use style="stroke:#000000;stroke-width:1.25;" x="63.093" xlink:href="#me7350a10c8" y="260.726645"/>
      </g>
     </g>
     <g id="text_7">
      <!-- 20 -->
      <g transform="translate(35.39625 266.159527)scale(0.143 -0.143)">
       <use xlink:href="#DejaVuSans-32"/>
       <use x="63.623047" xlink:href="#DejaVuSans-30"/>
      </g>
     </g>
    </g>
    <g id="ytick_3">
     <g id="line2d_8">
      <g>
       <use style="stroke:#000000;stroke-width:1.25;" x="63.093" xlink:href="#me7350a10c8" y="211.107892"/>
      </g>
     </g>
     <g id="text_8">
      <!-- 40 -->
      <g transform="translate(35.39625 216.540775)scale(0.143 -0.143)">
       <use xlink:href="#DejaVuSans-34"/>
       <use x="63.623047" xlink:href="#DejaVuSans-30"/>
      </g>
     </g>
    </g>
    <g id="ytick_4">
     <g id="line2d_9">
      <g>
       <use style="stroke:#000000;stroke-width:1.25;" x="63.093" xlink:href="#me7350a10c8" y="161.48914"/>
      </g>
     </g>
     <g id="text_9">
      <!-- 60 -->
      <g transform="translate(35.39625 166.922023)scale(0.143 -0.143)">
       <defs>
        <path d="M 2113 2584 
Q 1688 2584 1439 2293 
Q 1191 2003 1191 1497 
Q 1191 994 1439 701 
Q 1688 409 2113 409 
Q 2538 409 2786 701 
Q 3034 994 3034 1497 
Q 3034 2003 2786 2293 
Q 2538 2584 2113 2584 
z
M 3366 4563 
L 3366 3988 
Q 3128 4100 2886 4159 
Q 2644 4219 2406 4219 
Q 1781 4219 1451 3797 
Q 1122 3375 1075 2522 
Q 1259 2794 1537 2939 
Q 1816 3084 2150 3084 
Q 2853 3084 3261 2657 
Q 3669 2231 3669 1497 
Q 3669 778 3244 343 
Q 2819 -91 2113 -91 
Q 1303 -91 875 529 
Q 447 1150 447 2328 
Q 447 3434 972 4092 
Q 1497 4750 2381 4750 
Q 2619 4750 2861 4703 
Q 3103 4656 3366 4563 
z
" id="DejaVuSans-36" transform="scale(0.015625)"/>
       </defs>
       <use xlink:href="#DejaVuSans-36"/>
       <use x="63.623047" xlink:href="#DejaVuSans-30"/>
      </g>
     </g>
    </g>
    <g id="ytick_5">
     <g id="line2d_10">
      <g>
       <use style="stroke:#000000;stroke-width:1.25;" x="63.093" xlink:href="#me7350a10c8" y="111.870388"/>
      </g>
     </g>
     <g id="text_10">
      <!-- 80 -->
      <g transform="translate(35.39625 117.30327)scale(0.143 -0.143)">
       <defs>
        <path d="M 2034 2216 
Q 1584 2216 1326 1975 
Q 1069 1734 1069 1313 
Q 1069 891 1326 650 
Q 1584 409 2034 409 
Q 2484 409 2743 651 
Q 3003 894 3003 1313 
Q 3003 1734 2745 1975 
Q 2488 2216 2034 2216 
z
M 1403 2484 
Q 997 2584 770 2862 
Q 544 3141 544 3541 
Q 544 4100 942 4425 
Q 1341 4750 2034 4750 
Q 2731 4750 3128 4425 
Q 3525 4100 3525 3541 
Q 3525 3141 3298 2862 
Q 3072 2584 2669 2484 
Q 3125 2378 3379 2068 
Q 3634 1759 3634 1313 
Q 3634 634 3220 271 
Q 2806 -91 2034 -91 
Q 1263 -91 848 271 
Q 434 634 434 1313 
Q 434 1759 690 2068 
Q 947 2378 1403 2484 
z
M 1172 3481 
Q 1172 3119 1398 2916 
Q 1625 2713 2034 2713 
Q 2441 2713 2670 2916 
Q 2900 3119 2900 3481 
Q 2900 3844 2670 4047 
Q 2441 4250 2034 4250 
Q 1625 4250 1398 4047 
Q 1172 3844 1172 3481 
z
" id="DejaVuSans-38" transform="scale(0.015625)"/>
       </defs>
       <use xlink:href="#DejaVuSans-38"/>
       <use x="63.623047" xlink:href="#DejaVuSans-30"/>
      </g>
     </g>
    </g>
    <g id="ytick_6">
     <g id="line2d_11">
      <g>
       <use style="stroke:#000000;stroke-width:1.25;" x="63.093" xlink:href="#me7350a10c8" y="62.251635"/>
      </g>
     </g>
     <g id="text_11">
      <!-- 100 -->
      <g transform="translate(26.297875 67.684518)scale(0.143 -0.143)">
       <use xlink:href="#DejaVuSans-31"/>
       <use x="63.623047" xlink:href="#DejaVuSans-30"/>
       <use x="127.246094" xlink:href="#DejaVuSans-30"/>
      </g>
     </g>
    </g>
    <g id="ytick_7">
     <g id="line2d_12">
      <g>
       <use style="stroke:#000000;stroke-width:1.25;" x="63.093" xlink:href="#me7350a10c8" y="12.632883"/>
      </g>
     </g>
     <g id="text_12">
      <!-- 120 -->
      <g transform="translate(26.297875 18.065766)scale(0.143 -0.143)">
       <use xlink:href="#DejaVuSans-31"/>
       <use x="63.623047" xlink:href="#DejaVuSans-32"/>
       <use x="127.246094" xlink:href="#DejaVuSans-30"/>
      </g>
     </g>
    </g>
    <g id="text_13">
     <!-- Count -->
     <g transform="translate(19.053562 183.722351)rotate(-90)scale(0.156 -0.156)">
      <defs>
       <path d="M 4122 4306 
L 4122 3641 
Q 3803 3938 3442 4084 
Q 3081 4231 2675 4231 
Q 1875 4231 1450 3742 
Q 1025 3253 1025 2328 
Q 1025 1406 1450 917 
Q 1875 428 2675 428 
Q 3081 428 3442 575 
Q 3803 722 4122 1019 
L 4122 359 
Q 3791 134 3420 21 
Q 3050 -91 2638 -91 
Q 1578 -91 968 557 
Q 359 1206 359 2328 
Q 359 3453 968 4101 
Q 1578 4750 2638 4750 
Q 3056 4750 3426 4639 
Q 3797 4528 4122 4306 
z
" id="DejaVuSans-43" transform="scale(0.015625)"/>
       <path d="M 1959 3097 
Q 1497 3097 1228 2736 
Q 959 2375 959 1747 
Q 959 1119 1226 758 
Q 1494 397 1959 397 
Q 2419 397 2687 759 
Q 2956 1122 2956 1747 
Q 2956 2369 2687 2733 
Q 2419 3097 1959 3097 
z
M 1959 3584 
Q 2709 3584 3137 3096 
Q 3566 2609 3566 1747 
Q 3566 888 3137 398 
Q 2709 -91 1959 -91 
Q 1206 -91 779 398 
Q 353 888 353 1747 
Q 353 2609 779 3096 
Q 1206 3584 1959 3584 
z
" id="DejaVuSans-6f" transform="scale(0.015625)"/>
       <path d="M 544 1381 
L 544 3500 
L 1119 3500 
L 1119 1403 
Q 1119 906 1312 657 
Q 1506 409 1894 409 
Q 2359 409 2629 706 
Q 2900 1003 2900 1516 
L 2900 3500 
L 3475 3500 
L 3475 0 
L 2900 0 
L 2900 538 
Q 2691 219 2414 64 
Q 2138 -91 1772 -91 
Q 1169 -91 856 284 
Q 544 659 544 1381 
z
M 1991 3584 
L 1991 3584 
z
" id="DejaVuSans-75" transform="scale(0.015625)"/>
       <path d="M 3513 2113 
L 3513 0 
L 2938 0 
L 2938 2094 
Q 2938 2591 2744 2837 
Q 2550 3084 2163 3084 
Q 1697 3084 1428 2787 
Q 1159 2491 1159 1978 
L 1159 0 
L 581 0 
L 581 3500 
L 1159 3500 
L 1159 2956 
Q 1366 3272 1645 3428 
Q 1925 3584 2291 3584 
Q 2894 3584 3203 3211 
Q 3513 2838 3513 2113 
z
" id="DejaVuSans-6e" transform="scale(0.015625)"/>
       <path d="M 1172 4494 
L 1172 3500 
L 2356 3500 
L 2356 3053 
L 1172 3053 
L 1172 1153 
Q 1172 725 1289 603 
Q 1406 481 1766 481 
L 2356 481 
L 2356 0 
L 1766 0 
Q 1100 0 847 248 
Q 594 497 594 1153 
L 594 3053 
L 172 3053 
L 172 3500 
L 594 3500 
L 594 4494 
L 1172 4494 
z
" id="DejaVuSans-74" transform="scale(0.015625)"/>
      </defs>
      <use xlink:href="#DejaVuSans-43"/>
      <use x="69.824219" xlink:href="#DejaVuSans-6f"/>
      <use x="131.005859" xlink:href="#DejaVuSans-75"/>
      <use x="194.384766" xlink:href="#DejaVuSans-6e"/>
      <use x="257.763672" xlink:href="#DejaVuSans-74"/>
     </g>
    </g>
   </g>
   <g id="patch_29">
    <path d="M 63.093 310.345397 
L 63.093 10.77218 
" style="fill:none;stroke:#000000;stroke-linecap:square;stroke-linejoin:miter;stroke-width:1.25;"/>
   </g>
   <g id="patch_30">
    <path d="M 63.093 310.345397 
L 324.792026 310.345397 
" style="fill:none;stroke:#000000;stroke-linecap:square;stroke-linejoin:miter;stroke-width:1.25;"/>
   </g>
  </g>
 </g>
 <defs>
  <clipPath id="pf887509d5b">
   <rect height="299.573217" width="261.699026" x="63.093" y="10.77218"/>
  </clipPath>
 </defs>
</svg>
